# xmcd
#
# Track frame offsets:
#	150
#	15850
#	33513
#	49189
#	63562
#	82216
#	95277
#	111484
#	127117
#	145066
#	169723
#	184611
#	197625
#
# Disc length: 3231 seconds
#
# Revision: 0
# Processed by: cddbd v1.5.2PL0 Copyright (c) Steve Scherf et al.
# Submitted via: audiograbber 1.83.01
#
DISCID=b20c9d0d
DTITLE=Richard and Linda Thompson - I Want to See the Bright Lights Tonight
DYEAR=2018
DGENRE=County
TTITLE0=When I Get to the Border
TTITLE1=The Calvary Cross
TTITLE2=Withered and Died
TTITLE3=I Want to See the Bright Lights Tonight
TTITLE4=Down Where the Drunkards Roll
TTITLE5=We Sing Hallelujah
TTITLE6=Has He Got a Friend for Me
TTITLE7=The Little Beggar Girl
TTITLE8=The End of the Rainbow
TTITLE9=The Great Valerio
TTITLE10=I Want to See the Bright Lights Tonight (Live)
TTITLE11=Together Again (Live)
TTITLE12=The Calvary Cross (Live)
EXTD=
EXTT0=
EXTT1=
EXTT2=
EXTT3=
EXTT4=
EXTT5=
EXTT6=
EXTT7=
EXTT8=
EXTT9=
EXTT10=
EXTT11=
EXTT12=
PLAYORDER=
